<?xml version="1.0" standalone="no"?>
<!DOCTYPE svg PUBLIC "-//W3C//DTD SVG 20010904//EN"
 "http://www.w3.org/TR/2001/REC-SVG-20010904/DTD/svg10.dtd">
<svg version="1.0" xmlns="http://www.w3.org/2000/svg"
 width="260.000000pt" height="260.000000pt" viewBox="0 0 260.000000 260.000000"
 preserveAspectRatio="xMidYMid meet">
<metadata>
Created by potrace 1.11, written by Peter Selinger 2001-2013
</metadata>
<g transform="translate(0.000000,260.000000) scale(0.100000,-0.100000)"
fill="#000000" stroke="none">
<path d="M982 2545 c-56 -29 -115 -63 -130 -75 -15 -11 -49 -39 -77 -60 -85
-68 -126 -80 -276 -80 -29 0 -59 -35 -63 -74 -3 -31 -14 -46 -42 -56 -13 -5
-24 -17 -24 -26 0 -9 -20 -36 -44 -61 -25 -25 -57 -70 -72 -101 -15 -32 -38
-79 -52 -106 -13 -26 -31 -70 -38 -97 -8 -27 -21 -73 -29 -101 -16 -57 -35
-211 -40 -323 -9 -180 39 -380 131 -549 46 -87 54 -112 30 -103 -11 4 -13 1
-9 -11 6 -15 3 -14 -15 2 -12 11 -22 24 -22 31 0 7 -9 20 -20 30 -11 10 -20
24 -20 31 0 7 -13 45 -29 86 -16 40 -37 112 -47 161 -18 85 -34 115 -34 60 2
-105 64 -295 119 -367 22 -28 60 -76 85 -107 34 -44 47 -72 62 -133 14 -62 16
-81 6 -97 -7 -10 -12 -27 -12 -36 0 -13 3 -14 8 -6 13 21 130 -48 176 -102 21
-26 52 -51 67 -57 16 -5 29 -14 29 -19 0 -4 17 -11 38 -15 20 -4 46 -13 57
-20 23 -15 155 -67 235 -94 105 -35 254 -60 366 -61 90 0 282 37 358 70 62 27
166 91 166 102 0 5 7 9 16 9 9 0 27 9 40 19 19 15 36 18 87 15 l62 -4 30 48
c18 28 37 46 47 46 12 -1 19 9 24 32 5 25 24 49 76 95 68 61 98 102 98 135 0
16 27 63 87 152 57 85 146 235 151 256 3 13 -6 6 -22 -17 -14 -21 -26 -41 -26
-46 0 -9 -33 -41 -43 -41 -4 0 -7 19 -7 43 0 24 -5 48 -11 54 -6 6 -11 39 -12
72 0 34 -4 61 -8 61 -4 0 -7 17 -6 38 1 61 -14 265 -23 298 -4 18 -3 49 3 72
9 35 8 44 -15 83 -36 62 -66 231 -45 257 7 9 4 19 -10 35 -20 22 -43 60 -43
72 0 3 12 2 28 -1 l27 -7 -22 22 c-13 12 -23 27 -23 33 0 7 -8 21 -19 32 -10
12 -26 42 -36 68 -10 26 -32 64 -49 85 -18 21 -43 54 -56 73 -23 33 -52 61
-110 108 -14 11 -22 23 -18 27 4 4 69 14 144 24 88 10 139 20 142 29 5 17 -91
15 -142 -3 -72 -25 -174 -39 -199 -27 -64 32 -150 60 -217 71 -88 15 -120 22
-220 49 -82 23 -223 42 -340 48 -74 3 -76 3 -178 -51z m-16 -342 c8 -31 -10
-181 -32 -268 -9 -33 -33 -98 -55 -144 -39 -83 -46 -124 -33 -189 6 -28 9 -30
39 -25 28 4 36 1 51 -22 15 -22 16 -34 7 -66 -12 -44 -7 -48 31 -18 23 18 26
27 26 86 0 72 25 132 65 153 66 36 87 -35 36 -125 -34 -61 -37 -73 -18 -99 29
-40 72 19 118 161 24 76 41 93 68 69 11 -10 21 -12 32 -5 27 14 40 -12 55
-113 17 -113 17 -145 3 -154 -20 -12 -27 18 -35 138 -3 65 -10 118 -14 118
-24 0 -29 -30 -19 -128 11 -112 5 -136 -35 -130 -25 4 -33 34 -35 133 l-1 70
-35 -79 c-19 -43 -44 -89 -56 -102 -27 -29 -68 -31 -101 -5 l-24 19 -59 -45
c-71 -53 -119 -76 -145 -68 -34 11 -55 136 -55 320 0 137 3 171 23 240 26 90
93 233 129 276 32 37 60 38 69 2z m574 -367 c0 -34 3 -91 6 -124 6 -55 9 -60
25 -52 33 18 34 10 2 -17 l-32 -28 -3 -122 c-3 -109 -5 -125 -24 -144 -28 -27
-59 -18 -80 23 -19 36 -14 100 11 148 10 20 15 59 15 127 0 94 14 225 26 244
3 5 16 9 30 9 23 0 24 -3 24 -64z m244 -37 c3 -17 6 -49 6 -70 0 -22 2 -39 4
-39 2 0 28 11 57 25 29 13 55 22 58 20 5 -6 9 -3 -54 -36 l-50 -26 -5 -137
c-5 -136 -5 -138 -33 -162 -49 -42 -117 -22 -117 34 0 41 30 145 55 190 31 55
25 74 -16 58 -26 -9 -33 -8 -44 8 -18 23 -29 98 -21 131 5 18 13 25 31 25 24
0 25 -3 25 -64 0 -64 14 -92 31 -65 5 8 9 28 9 45 0 65 11 94 35 94 17 0 24
-7 29 -31z m-846 -568 c9 -5 13 -23 11 -52 l-4 -44 50 -4 50 -5 -50 -5 -50 -6
-16 -160 c-9 -88 -18 -198 -20 -245 -4 -74 -2 -85 13 -88 21 -4 67 57 123 165
47 90 89 120 151 108 l36 -6 -6 -82 c-4 -48 -2 -88 3 -97 15 -21 48 60 68 163
14 78 26 100 48 94 5 -2 12 -14 15 -28 6 -23 7 -23 31 13 26 41 47 54 61 40
22 -22 38 -275 18 -287 -5 -3 -19 -1 -30 5 -18 10 -20 21 -20 133 l0 122 -23
-35 c-18 -28 -23 -54 -27 -140 -5 -97 -7 -105 -25 -105 -13 0 -21 7 -22 20 -1
11 -5 47 -9 80 l-6 60 -18 -64 c-10 -35 -27 -72 -38 -84 -23 -23 -51 -17 -59
13 -8 31 -17 24 -33 -27 -23 -74 -83 -96 -111 -42 -4 8 -11 28 -14 44 l-7 30
-16 -25 c-9 -14 -33 -42 -53 -63 -40 -40 -71 -47 -107 -21 -20 14 -22 23 -22
127 0 62 7 172 15 245 9 73 13 137 10 142 -3 6 -22 10 -41 10 -19 0 -34 3 -34
8 0 4 20 6 45 4 45 -4 45 -4 45 28 0 58 30 85 68 61z m616 -7 c3 -9 6 -35 6
-59 l0 -43 38 9 c47 11 52 11 52 0 0 -5 -20 -12 -45 -15 -40 -6 -45 -10 -50
-39 -3 -18 -5 -126 -3 -242 l3 -210 27 -3 c22 -3 32 4 50 32 28 44 44 47 22 5
-22 -43 -62 -79 -89 -79 -12 0 -32 12 -46 26 l-24 26 1 234 1 234 -41 1 c-45
1 -41 4 17 14 36 6 37 7 37 50 0 52 8 75 25 75 7 0 16 -7 19 -16z m-797 -116
c25 -28 37 -63 26 -80 -5 -9 -11 1 -19 27 -25 92 -63 8 -39 -89 7 -28 28 -90
49 -138 41 -99 44 -130 16 -176 -36 -58 -117 -70 -171 -25 -38 32 -111 183
-89 183 6 0 26 -32 45 -71 19 -39 40 -78 47 -86 18 -22 50 -32 70 -22 30 16
31 62 2 141 -46 127 -60 207 -45 261 14 49 50 97 74 97 7 0 23 -10 34 -22z
m1242 -70 c13 -41 31 -176 31 -229 0 -38 -2 -40 -27 -37 -33 4 -40 26 -42 133
-2 85 -11 145 -22 145 -5 0 -25 -21 -44 -47 -34 -46 -35 -51 -33 -125 3 -67 1
-78 -15 -82 -34 -9 -57 28 -57 91 0 52 -1 55 -17 41 -10 -8 -26 -18 -35 -21
-9 -3 -22 -25 -28 -49 -15 -57 -36 -78 -75 -78 -95 0 -96 171 -1 205 33 11 55
-1 74 -38 7 -15 19 -27 26 -27 17 0 43 30 64 72 22 42 49 49 58 13 l6 -26 24
35 c45 66 96 76 113 24z"/>
<path d="M926 2183 c-34 -66 -67 -208 -72 -308 l-5 -100 20 35 c32 54 58 149
76 265 17 118 10 163 -19 108z"/>
<path d="M1085 1688 c-2 -7 -7 -35 -10 -62 -6 -43 -5 -48 7 -38 18 14 41 89
33 102 -9 14 -25 12 -30 -2z"/>
<path d="M861 1551 c-10 -7 -12 -25 -6 -80 6 -65 8 -70 26 -61 28 16 51 67 47
108 -3 31 -7 37 -28 40 -14 1 -31 -2 -39 -7z"/>
<path d="M1443 1468 c-10 -37 -10 -53 -1 -75 l12 -28 4 38 c2 20 2 54 0 75
l-3 37 -12 -47z"/>
<path d="M1708 1565 c-28 -69 -43 -162 -28 -180 36 -43 54 10 48 145 l-3 75
-17 -40z"/>
<path d="M1156 851 c-21 -23 -51 -102 -61 -158 -5 -35 -4 -43 8 -43 27 0 54
48 67 117 6 38 14 76 17 86 6 23 -10 22 -31 -2z"/>
<path d="M1650 964 c0 -16 23 -44 35 -44 18 0 18 5 5 31 -10 17 -40 27 -40 13z"/>
<path d="M1626 952 c-12 -19 -17 -97 -8 -127 12 -42 37 -43 62 -3 26 43 25 71
-2 83 -13 6 -28 21 -34 33 -7 13 -15 19 -18 14z"/>
</g>
</svg>
